<svg id="visual" viewBox="0 0 1366 649" width="1366" height="649" xmlns="http://www.w3.org/2000/svg" xmlns:xlink="http://www.w3.org/1999/xlink" version="1.1"><rect x="0" y="0" width="1366" height="649" fill="#e6e6fa"></rect><defs><linearGradient id="grad1_0" x1="52.5%" y1="0%" x2="100%" y2="100%"><stop offset="7.904468412942993%" stop-color="#6600ff" stop-opacity="1"></stop><stop offset="92.095531587057%" stop-color="#6600ff" stop-opacity="1"></stop></linearGradient></defs><defs><linearGradient id="grad1_1" x1="52.5%" y1="0%" x2="100%" y2="100%"><stop offset="7.904468412942993%" stop-color="#6600ff" stop-opacity="1"></stop><stop offset="92.095531587057%" stop-color="#7e5aff" stop-opacity="1"></stop></linearGradient></defs><defs><linearGradient id="grad1_2" x1="52.5%" y1="0%" x2="100%" y2="100%"><stop offset="7.904468412942993%" stop-color="#9c8dff" stop-opacity="1"></stop><stop offset="92.095531587057%" stop-color="#7e5aff" stop-opacity="1"></stop></linearGradient></defs><defs><linearGradient id="grad1_3" x1="52.5%" y1="0%" x2="100%" y2="100%"><stop offset="7.904468412942993%" stop-color="#9c8dff" stop-opacity="1"></stop><stop offset="92.095531587057%" stop-color="#bfbaff" stop-opacity="1"></stop></linearGradient></defs><defs><linearGradient id="grad1_4" x1="52.5%" y1="0%" x2="100%" y2="100%"><stop offset="7.904468412942993%" stop-color="#e6e6fa" stop-opacity="1"></stop><stop offset="92.095531587057%" stop-color="#bfbaff" stop-opacity="1"></stop></linearGradient></defs><defs><linearGradient id="grad2_0" x1="0%" y1="0%" x2="47.5%" y2="100%"><stop offset="7.904468412942993%" stop-color="#6600ff" stop-opacity="1"></stop><stop offset="92.095531587057%" stop-color="#6600ff" stop-opacity="1"></stop></linearGradient></defs><defs><linearGradient id="grad2_1" x1="0%" y1="0%" x2="47.5%" y2="100%"><stop offset="7.904468412942993%" stop-color="#7e5aff" stop-opacity="1"></stop><stop offset="92.095531587057%" stop-color="#6600ff" stop-opacity="1"></stop></linearGradient></defs><defs><linearGradient id="grad2_2" x1="0%" y1="0%" x2="47.5%" y2="100%"><stop offset="7.904468412942993%" stop-color="#7e5aff" stop-opacity="1"></stop><stop offset="92.095531587057%" stop-color="#9c8dff" stop-opacity="1"></stop></linearGradient></defs><defs><linearGradient id="grad2_3" x1="0%" y1="0%" x2="47.5%" y2="100%"><stop offset="7.904468412942993%" stop-color="#bfbaff" stop-opacity="1"></stop><stop offset="92.095531587057%" stop-color="#9c8dff" stop-opacity="1"></stop></linearGradient></defs><defs><linearGradient id="grad2_4" x1="0%" y1="0%" x2="47.5%" y2="100%"><stop offset="7.904468412942993%" stop-color="#bfbaff" stop-opacity="1"></stop><stop offset="92.095531587057%" stop-color="#e6e6fa" stop-opacity="1"></stop></linearGradient></defs><g transform="translate(1366, 0)"><path d="M0 551.7C-62.1 529.7 -124.3 507.7 -147.1 452.7C-169.9 397.7 -153.3 309.6 -215.7 296.9C-278.1 284.2 -419.4 347 -446.3 324.3C-473.2 301.5 -385.7 193.1 -384.2 124.8C-382.7 56.5 -467.2 28.3 -551.6 0L0 0Z" fill="#d2d0ff"></path><path d="M0 441.3C-49.7 423.8 -99.4 406.2 -117.7 362.2C-135.9 318.1 -122.7 247.7 -172.6 237.5C-222.5 227.4 -335.5 277.6 -357 259.4C-378.6 241.2 -308.6 154.5 -307.4 99.9C-306.2 45.2 -373.7 22.6 -441.3 0L0 0Z" fill="#ada4ff"></path><path d="M0 331C-37.3 317.8 -74.6 304.6 -88.3 271.6C-101.9 238.6 -92 185.7 -129.4 178.1C-166.9 170.5 -251.6 208.2 -267.8 194.6C-283.9 180.9 -231.4 115.9 -230.5 74.9C-229.6 33.9 -280.3 17 -331 0L0 0Z" fill="#8d74ff"></path><path d="M0 220.7C-24.9 211.9 -49.7 203.1 -58.8 181.1C-68 159.1 -61.3 123.8 -86.3 118.8C-111.2 113.7 -167.8 138.8 -178.5 129.7C-189.3 120.6 -154.3 77.3 -153.7 49.9C-153.1 22.6 -186.9 11.3 -220.7 0L0 0Z" fill="#713cff"></path><path d="M0 110.3C-12.4 105.9 -24.9 101.5 -29.4 90.5C-34 79.5 -30.7 61.9 -43.1 59.4C-55.6 56.8 -83.9 69.4 -89.3 64.9C-94.6 60.3 -77.1 38.6 -76.8 25C-76.5 11.3 -93.4 5.7 -110.3 0L0 0Z" fill="#6600ff"></path></g><g transform="translate(0, 649)"><path d="M0 -551.6C56.6 -536.3 113.2 -521 158.5 -487.9C203.9 -454.8 238 -403.9 261.6 -360C285.1 -316.1 298 -279.1 347.9 -252.7C397.7 -226.4 484.5 -210.8 524.7 -170.5C564.8 -130.1 558.2 -65.1 551.7 0L0 0Z" fill="#d2d0ff"></path><path d="M0 -441.3C45.3 -429.1 90.5 -416.8 126.8 -390.3C163.1 -363.8 190.4 -323.2 209.3 -288C228.1 -252.9 238.4 -223.3 278.3 -202.2C318.2 -181.1 387.6 -168.6 419.7 -136.4C451.8 -104.1 446.6 -52.1 441.3 0L0 0Z" fill="#ada4ff"></path><path d="M0 -331C33.9 -321.8 67.9 -312.6 95.1 -292.7C122.3 -272.9 142.8 -242.4 156.9 -216C171.1 -189.6 178.8 -167.4 208.7 -151.6C238.6 -135.9 290.7 -126.5 314.8 -102.3C338.9 -78.1 334.9 -39 331 0L0 0Z" fill="#8d74ff"></path><path d="M0 -220.7C22.6 -214.5 45.3 -208.4 63.4 -195.2C81.6 -181.9 95.2 -161.6 104.6 -144C114 -126.4 119.2 -111.6 139.2 -101.1C159.1 -90.6 193.8 -84.3 209.9 -68.2C225.9 -52.1 223.3 -26 220.7 0L0 0Z" fill="#713cff"></path><path d="M0 -110.3C11.3 -107.3 22.6 -104.2 31.7 -97.6C40.8 -91 47.6 -80.8 52.3 -72C57 -63.2 59.6 -55.8 69.6 -50.5C79.5 -45.3 96.9 -42.2 104.9 -34.1C113 -26 111.6 -13 110.3 0L0 0Z" fill="#6600ff"></path></g></svg>