<?xml version="1.0" standalone="no"?>
<svg viewBox="0 0 200 200" xmlns="http://www.w3.org/2000/svg">
  <path fill="#8A3FFC" d="M33.8,-43.1C45.1,-38.3,56.5,-30.2,64.5,-18C72.5,-5.9,77.1,10.3,71.3,21.7C65.6,33,49.5,39.5,35.9,49.8C22.3,60.2,11.1,74.4,-4.1,79.9C-19.2,85.5,-38.5,82.5,-46.6,70.4C-54.7,58.2,-51.7,37,-51.7,20.7C-51.7,4.3,-54.6,-7.2,-55.6,-22.3C-56.5,-37.4,-55.5,-56.1,-45.9,-61.5C-36.3,-66.9,-18.1,-58.9,-3.4,-54.2C11.2,-49.4,22.5,-47.9,33.8,-43.1Z" transform="translate(100 100)" />
</svg>
