<svg id="visual" viewBox="0 0 1366 649" width="1366" height="649" xmlns="http://www.w3.org/2000/svg" xmlns:xlink="http://www.w3.org/1999/xlink" version="1.1"><rect x="0" y="0" width="1366" height="649" fill="#ebc1e7"></rect><defs><linearGradient id="grad1_0" x1="52.5%" y1="0%" x2="100%" y2="100%"><stop offset="7.904468412942993%" stop-color="#6600ff" stop-opacity="1"></stop><stop offset="92.095531587057%" stop-color="#6600ff" stop-opacity="1"></stop></linearGradient></defs><defs><linearGradient id="grad1_1" x1="52.5%" y1="0%" x2="100%" y2="100%"><stop offset="7.904468412942993%" stop-color="#6600ff" stop-opacity="1"></stop><stop offset="92.095531587057%" stop-color="#a43df3" stop-opacity="1"></stop></linearGradient></defs><defs><linearGradient id="grad1_2" x1="52.5%" y1="0%" x2="100%" y2="100%"><stop offset="7.904468412942993%" stop-color="#c869eb" stop-opacity="1"></stop><stop offset="92.095531587057%" stop-color="#a43df3" stop-opacity="1"></stop></linearGradient></defs><defs><linearGradient id="grad1_3" x1="52.5%" y1="0%" x2="100%" y2="100%"><stop offset="7.904468412942993%" stop-color="#c869eb" stop-opacity="1"></stop><stop offset="92.095531587057%" stop-color="#df95e7" stop-opacity="1"></stop></linearGradient></defs><defs><linearGradient id="grad1_4" x1="52.5%" y1="0%" x2="100%" y2="100%"><stop offset="7.904468412942993%" stop-color="#ebc1e7" stop-opacity="1"></stop><stop offset="92.095531587057%" stop-color="#df95e7" stop-opacity="1"></stop></linearGradient></defs><defs><linearGradient id="grad2_0" x1="0%" y1="0%" x2="47.5%" y2="100%"><stop offset="7.904468412942993%" stop-color="#6600ff" stop-opacity="1"></stop><stop offset="92.095531587057%" stop-color="#6600ff" stop-opacity="1"></stop></linearGradient></defs><defs><linearGradient id="grad2_1" x1="0%" y1="0%" x2="47.5%" y2="100%"><stop offset="7.904468412942993%" stop-color="#a43df3" stop-opacity="1"></stop><stop offset="92.095531587057%" stop-color="#6600ff" stop-opacity="1"></stop></linearGradient></defs><defs><linearGradient id="grad2_2" x1="0%" y1="0%" x2="47.5%" y2="100%"><stop offset="7.904468412942993%" stop-color="#a43df3" stop-opacity="1"></stop><stop offset="92.095531587057%" stop-color="#c869eb" stop-opacity="1"></stop></linearGradient></defs><defs><linearGradient id="grad2_3" x1="0%" y1="0%" x2="47.5%" y2="100%"><stop offset="7.904468412942993%" stop-color="#df95e7" stop-opacity="1"></stop><stop offset="92.095531587057%" stop-color="#c869eb" stop-opacity="1"></stop></linearGradient></defs><defs><linearGradient id="grad2_4" x1="0%" y1="0%" x2="47.5%" y2="100%"><stop offset="7.904468412942993%" stop-color="#df95e7" stop-opacity="1"></stop><stop offset="92.095531587057%" stop-color="#ebc1e7" stop-opacity="1"></stop></linearGradient></defs><g transform="translate(1366, 0)"><path d="M0 551.7C-43.1 494.6 -86.3 437.6 -133.2 409.9C-180.1 382.2 -230.9 383.9 -261.6 360C-292.3 336.1 -302.9 286.6 -351.1 255.1C-399.3 223.6 -485 210 -524.7 170.5C-564.3 130.9 -558 65.5 -551.6 0L0 0Z" fill="#e6abe6"></path><path d="M0 441.3C-34.5 395.7 -69 350.1 -106.5 327.9C-144.1 305.8 -184.7 307.1 -209.3 288C-233.8 268.9 -242.3 229.3 -280.9 204.1C-319.4 178.9 -388 168 -419.7 136.4C-451.5 104.8 -446.4 52.4 -441.3 0L0 0Z" fill="#d57fe8"></path><path d="M0 331C-25.9 296.8 -51.8 262.5 -79.9 245.9C-108.1 229.3 -138.5 230.3 -156.9 216C-175.4 201.7 -181.8 172 -210.7 153.1C-239.6 134.1 -291 126 -314.8 102.3C-338.6 78.6 -334.8 39.3 -331 0L0 0Z" fill="#b853ef"></path><path d="M0 220.7C-17.3 197.8 -34.5 175 -53.3 164C-72 152.9 -92.3 153.6 -104.6 144C-116.9 134.4 -121.2 114.7 -140.4 102C-159.7 89.4 -194 84 -209.9 68.2C-225.7 52.4 -223.2 26.2 -220.7 0L0 0Z" fill="#8a24f9"></path><path d="M0 110.3C-8.6 98.9 -17.3 87.5 -26.6 82C-36 76.4 -46.2 76.8 -52.3 72C-58.5 67.2 -60.6 57.3 -70.2 51C-79.9 44.7 -97 42 -104.9 34.1C-112.9 26.2 -111.6 13.1 -110.3 0L0 0Z" fill="#6600ff"></path></g><g transform="translate(0, 649)"><path d="M0 -551.6C41.5 -497 83 -442.4 139.7 -429.9C196.4 -417.4 268.2 -447.1 310.9 -428C353.7 -408.9 367.3 -340.9 402.9 -292.7C438.5 -244.5 496.2 -216 524.7 -170.5C553.1 -125 552.4 -62.5 551.7 0L0 0Z" fill="#e6abe6"></path><path d="M0 -441.3C33.2 -397.6 66.4 -353.9 111.7 -343.9C157.1 -333.9 214.6 -357.7 248.8 -342.4C282.9 -327.1 293.8 -272.8 322.3 -234.2C350.8 -195.6 396.9 -172.8 419.7 -136.4C442.5 -100 441.9 -50 441.3 0L0 0Z" fill="#d57fe8"></path><path d="M0 -331C24.9 -298.2 49.8 -265.4 83.8 -257.9C117.8 -250.4 160.9 -268.3 186.6 -256.8C212.2 -245.3 220.4 -204.6 241.7 -175.6C263.1 -146.7 297.7 -129.6 314.8 -102.3C331.9 -75 331.4 -37.5 331 0L0 0Z" fill="#b853ef"></path><path d="M0 -220.7C16.6 -198.8 33.2 -176.9 55.9 -172C78.5 -167 107.3 -178.8 124.4 -171.2C141.5 -163.5 146.9 -136.4 161.2 -117.1C175.4 -97.8 198.5 -86.4 209.9 -68.2C221.2 -50 221 -25 220.7 0L0 0Z" fill="#8a24f9"></path><path d="M0 -110.3C8.3 -99.4 16.6 -88.5 27.9 -86C39.3 -83.5 53.6 -89.4 62.2 -85.6C70.7 -81.8 73.5 -68.2 80.6 -58.5C87.7 -48.9 99.2 -43.2 104.9 -34.1C110.6 -25 110.5 -12.5 110.3 0L0 0Z" fill="#6600ff"></path></g></svg>