<svg id="visual" viewBox="0 0 960 540" width="960" height="540" xmlns="http://www.w3.org/2000/svg" xmlns:xlink="http://www.w3.org/1999/xlink" version="1.1"><path d="M0 416L20 418.7C40 421.3 80 426.7 120 430.8C160 435 200 438 240 441C280 444 320 447 360 443C400 439 440 428 480 427.5C520 427 560 437 600 436C640 435 680 423 720 420.3C760 417.7 800 424.3 840 431.3C880 438.3 920 445.7 940 449.3L960 453L960 541L940 541C920 541 880 541 840 541C800 541 760 541 720 541C680 541 640 541 600 541C560 541 520 541 480 541C440 541 400 541 360 541C320 541 280 541 240 541C200 541 160 541 120 541C80 541 40 541 20 541L0 541Z" fill="#98fb98"></path><path d="M0 450L20 452C40 454 80 458 120 457.2C160 456.3 200 450.7 240 448.5C280 446.3 320 447.7 360 448.8C400 450 440 451 480 449.3C520 447.7 560 443.3 600 440.2C640 437 680 435 720 434.8C760 434.7 800 436.3 840 442.2C880 448 920 458 940 463L960 468L960 541L940 541C920 541 880 541 840 541C800 541 760 541 720 541C680 541 640 541 600 541C560 541 520 541 480 541C440 541 400 541 360 541C320 541 280 541 240 541C200 541 160 541 120 541C80 541 40 541 20 541L0 541Z" fill="#befd8f"></path><path d="M0 473L20 475.3C40 477.7 80 482.3 120 485C160 487.7 200 488.3 240 489.2C280 490 320 491 360 486.7C400 482.3 440 472.7 480 472.3C520 472 560 481 600 483.2C640 485.3 680 480.7 720 476.8C760 473 800 470 840 473.3C880 476.7 920 486.3 940 491.2L960 496L960 541L940 541C920 541 880 541 840 541C800 541 760 541 720 541C680 541 640 541 600 541C560 541 520 541 480 541C440 541 400 541 360 541C320 541 280 541 240 541C200 541 160 541 120 541C80 541 40 541 20 541L0 541Z" fill="#e0ff8c"></path><path d="M0 506L20 508.5C40 511 80 516 120 518.3C160 520.7 200 520.3 240 516.8C280 513.3 320 506.7 360 506.2C400 505.7 440 511.3 480 512.3C520 513.3 560 509.7 600 508.7C640 507.7 680 509.3 720 507.3C760 505.3 800 499.7 840 500.7C880 501.7 920 509.3 940 513.2L960 517L960 541L940 541C920 541 880 541 840 541C800 541 760 541 720 541C680 541 640 541 600 541C560 541 520 541 480 541C440 541 400 541 360 541C320 541 280 541 240 541C200 541 160 541 120 541C80 541 40 541 20 541L0 541Z" fill="#ffff8d"></path></svg>