<svg id="visual" viewBox="0 0 900 600" width="900" height="600" xmlns="http://www.w3.org/2000/svg" xmlns:xlink="http://www.w3.org/1999/xlink" version="1.1"><rect x="0" y="0" width="900" height="600" fill="#eb9eff"></rect><path d="M0 472L21.5 471.7C43 471.3 86 470.7 128.8 455.5C171.7 440.3 214.3 410.7 257.2 411C300 411.3 343 441.7 385.8 457.2C428.7 472.7 471.3 473.3 514.2 469.2C557 465 600 456 642.8 445.3C685.7 434.7 728.3 422.3 771.2 424.2C814 426 857 442 878.5 450L900 458L900 601L878.5 601C857 601 814 601 771.2 601C728.3 601 685.7 601 642.8 601C600 601 557 601 514.2 601C471.3 601 428.7 601 385.8 601C343 601 300 601 257.2 601C214.3 601 171.7 601 128.8 601C86 601 43 601 21.5 601L0 601Z" fill="#fa7268"></path><path d="M0 431L21.5 444.5C43 458 86 485 128.8 493.3C171.7 501.7 214.3 491.3 257.2 475C300 458.7 343 436.3 385.8 441.3C428.7 446.3 471.3 478.7 514.2 480.7C557 482.7 600 454.3 642.8 454C685.7 453.7 728.3 481.3 771.2 494.2C814 507 857 505 878.5 504L900 503L900 601L878.5 601C857 601 814 601 771.2 601C728.3 601 685.7 601 642.8 601C600 601 557 601 514.2 601C471.3 601 428.7 601 385.8 601C343 601 300 601 257.2 601C214.3 601 171.7 601 128.8 601C86 601 43 601 21.5 601L0 601Z" fill="#eb5967"></path><path d="M0 481L21.5 486.5C43 492 86 503 128.8 502.7C171.7 502.3 214.3 490.7 257.2 493.7C300 496.7 343 514.3 385.8 516.2C428.7 518 471.3 504 514.2 498C557 492 600 494 642.8 500.7C685.7 507.3 728.3 518.7 771.2 526C814 533.3 857 536.7 878.5 538.3L900 540L900 601L878.5 601C857 601 814 601 771.2 601C728.3 601 685.7 601 642.8 601C600 601 557 601 514.2 601C471.3 601 428.7 601 385.8 601C343 601 300 601 257.2 601C214.3 601 171.7 601 128.8 601C86 601 43 601 21.5 601L0 601Z" fill="#da3f67"></path><path d="M0 516L21.5 519.2C43 522.3 86 528.7 128.8 535.7C171.7 542.7 214.3 550.3 257.2 557.2C300 564 343 570 385.8 566.8C428.7 563.7 471.3 551.3 514.2 553.3C557 555.3 600 571.7 642.8 577.8C685.7 584 728.3 580 771.2 571C814 562 857 548 878.5 541L900 534L900 601L878.5 601C857 601 814 601 771.2 601C728.3 601 685.7 601 642.8 601C600 601 557 601 514.2 601C471.3 601 428.7 601 385.8 601C343 601 300 601 257.2 601C214.3 601 171.7 601 128.8 601C86 601 43 601 21.5 601L0 601Z" fill="#c62368"></path></svg>